<?xml version="1.0" encoding="utf-8"?>
<!-- Generator: Adobe Illustrator 21.1.0, SVG Export Plug-In . SVG Version: 6.00 Build 0)  -->
<svg version="1.1" id="Layer_1" xmlns="http://www.w3.org/2000/svg" xmlns:xlink="http://www.w3.org/1999/xlink" x="0px" y="0px"
	 viewBox="0 0 425 106.5" style="enable-background:new 0 0 425 106.5;" xml:space="preserve">
<style type="text/css">
	.st0{fill:#47648B;}
	.st1{font-family:'OpenSans-ExtraBold';}
	.st2{font-size:42px;}
	.st3{letter-spacing:-1;}
</style>
<title>favicon_1</title>
<g id="Layer_2">
	<g id="Layer_1-2">
		<g>
			<path class="st0" d="M22.5,106.4C12.9,99.1,5.8,88.9,2.4,77.2c-0.5-1.4-0.8-3-1.1-4.4l-0.4-2.2c-0.2-0.8-0.3-1.6-0.3-2.3
				c-0.4-3-0.6-6.1-0.5-9.2c0.1-6.2,1.2-12.4,3.3-18.2c5.3-15,16.2-27.3,30.4-34.4c2.8-1.4,5.8-2.6,8.8-3.6c3-0.9,6.1-1.7,9.2-2.1
				C54.8,0.3,58,0,61.2,0c3.2,0,6.3,0.3,9.4,0.7c3.1,0.5,6.2,1.2,9.2,2.2c6,1.9,11.7,4.8,16.9,8.5c10.3,7.3,18.1,17.7,22.2,29.6
				c2,5.9,3.1,12,3.3,18.2c0.1,6.1-0.7,12.3-2.4,18.2c-3.4,11.6-10.5,21.8-20.2,29.1c8.1-8.3,13.6-18.8,15.9-30.2
				c2.2-11,1.1-22.5-3.1-32.9c-4.2-10.2-11.3-18.9-20.5-25.1C73.3,5.9,49,5.9,30.4,18.3c-9.1,6.1-16.3,14.8-20.5,25
				C5.6,53.7,4.5,65.2,6.7,76.2C8.9,87.6,14.4,98.1,22.5,106.4z"/>
			<g>
				<path class="st0" d="M59.7,105.2H42L18.8,33.8H35L50.9,84h0.2l16.1-50.2h16.2L59.7,105.2z"/>
				<path class="st0" d="M87.3,34.4l16.2,0.1l-24,70.8H63.3"/>
			</g>
		</g>
	</g>
</g>
<text transform="matrix(1 0 0 1 124.4046 43.7945)"><tspan x="0" y="0" class="st0 st1 st2 st3">Vita </tspan><tspan x="0" y="50.4" class="st0 st1 st2 st3">Innovations</tspan></text>
</svg>
